<?xml version="1.0" standalone="no"?>
<!DOCTYPE svg PUBLIC "-//W3C//DTD SVG 20010904//EN"
 "http://www.w3.org/TR/2001/REC-SVG-20010904/DTD/svg10.dtd">
<svg version="1.0" xmlns="http://www.w3.org/2000/svg"
 width="500.000000pt" height="500.000000pt" viewBox="0 0 500.000000 500.000000"
 preserveAspectRatio="xMidYMid meet">

<g transform="translate(0.000000,500.000000) scale(0.100000,-0.100000)"
fill="#000000" stroke="none">
<path d="M707 4084 c-3 -4 -2 -15 4 -25 6 -13 6 -19 -1 -19 -7 0 -9 -323 -8
-1032 l3 -1033 240 -3 c171 -2 248 1 269 10 23 9 31 9 34 0 3 -9 386 -12 1678
-12 l1674 0 0 1060 0 1060 -1943 0 c-1069 0 -1947 -3 -1950 -6z m3863 -1049
l0 -1035 -1920 0 -1920 0 0 1035 0 1035 1920 0 1920 0 0 -1035z"/>
<path d="M1610 3961 c-50 -11 -110 -44 -144 -80 -29 -30 -60 -120 -50 -145 3
-7 -11 -29 -32 -50 -46 -46 -35 -66 36 -66 34 0 50 -4 54 -16 10 -27 7 -89 -6
-103 -11 -10 -10 -14 5 -22 12 -7 17 -22 17 -49 0 -38 -2 -41 -54 -66 -67 -33
-121 -86 -160 -161 l-31 -58 -70 3 c-39 1 -91 -3 -117 -9 l-48 -11 0 -58 c0
-60 7 -70 52 -70 17 0 19 -4 13 -30 -5 -24 -1 -37 22 -66 55 -69 102 -111 135
-120 30 -9 33 -14 36 -51 3 -39 1 -44 -37 -68 -39 -24 -41 -28 -41 -74 0 -47
-2 -50 -50 -85 -48 -35 -50 -38 -50 -85 0 -45 -3 -52 -37 -79 -36 -29 -37 -30
-37 -106 l-1 -76 677 0 c445 0 678 3 678 10 0 6 -4 10 -10 10 -6 0 -10 29 -10
66 0 54 -4 71 -25 98 -19 25 -25 45 -25 83 0 60 -30 95 -82 97 -33 1 -33 1
-36 56 -2 30 -8 60 -14 67 -8 10 -6 13 9 13 34 0 67 35 87 90 15 42 18 69 13
135 -4 56 -2 86 6 94 9 9 9 16 -1 31 -6 11 -12 29 -12 39 0 11 -4 22 -9 25 -5
3 -18 36 -30 74 -20 66 -58 134 -102 181 -27 28 -159 92 -209 100 -30 5 -37
12 -50 49 -10 29 -11 45 -4 50 6 4 11 16 12 27 10 125 15 145 38 160 27 17 32
50 9 58 -8 4 -25 28 -39 55 -23 46 -72 94 -122 120 -29 15 -112 22 -154 13z
m100 -21 c11 -7 7 -10 -17 -10 -41 0 -100 -50 -111 -94 -7 -27 -13 -31 -44
-34 l-36 -3 7 33 c16 68 40 93 106 109 44 10 78 10 95 -1z m76 -41 c79 -38
125 -158 62 -159 -5 0 -8 7 -8 16 0 10 6 14 15 10 8 -3 15 -1 15 4 0 11 -49
13 -74 4 -10 -4 -16 -18 -16 -35 0 -22 -5 -29 -19 -29 -11 0 -22 6 -24 13 -3
7 -6 5 -6 -5 -1 -24 -61 -26 -61 -3 0 17 39 36 54 27 5 -3 6 0 2 6 -9 15 -58
-1 -70 -24 -6 -10 -15 -22 -19 -25 -12 -9 43 -18 78 -13 23 4 18 -1 -20 -18
-41 -18 -73 -22 -182 -26 -145 -4 -159 1 -97 40 32 21 35 26 29 61 -6 43 19
111 50 137 17 14 17 14 7 -7 -7 -12 -12 -38 -12 -57 l0 -36 49 0 c47 0 50 2
56 30 9 39 42 79 79 96 43 18 63 17 112 -7z m41 -145 c3 -9 0 -20 -8 -25 -14
-8 -31 18 -22 34 7 12 23 8 30 -9z m83 -12 c0 -9 -71 -34 -77 -28 -4 4 58 35
70 36 4 0 7 -4 7 -8z m-62 -94 c27 -27 8 -92 -31 -108 -15 -6 -17 -9 -6 -9 11
-1 21 -17 29 -47 12 -41 11 -48 -7 -72 -30 -40 -119 -82 -175 -82 -26 0 -50 5
-53 10 -3 6 1 10 9 10 20 0 127 63 150 89 17 18 18 31 12 100 -6 77 -6 80 20
100 31 24 36 25 52 9z m-128 -61 c0 -41 -5 -58 -20 -72 -13 -11 -20 -14 -20
-6 0 8 -7 10 -20 6 -10 -3 -32 0 -47 8 -19 10 -35 12 -51 6 -33 -13 -42 -4
-42 42 0 47 19 59 55 35 15 -10 25 -12 25 -6 0 7 8 9 19 5 10 -3 25 1 33 8 7
8 20 16 28 20 35 13 40 7 40 -46z m-211 -10 c0 -21 -1 -21 -9 -2 -12 28 -12
37 0 30 6 -3 10 -16 9 -28z m23 -109 c-7 -7 -12 -8 -12 -2 0 14 12 26 19 19 2
-3 -1 -11 -7 -17z m93 2 c-8 -13 -35 -13 -55 0 -11 7 -5 10 23 10 23 0 36 -4
32 -10z m269 -59 c3 -5 -1 -15 -10 -22 -26 -21 -72 -93 -90 -140 -28 -72 -42
-79 -171 -79 -61 0 -114 4 -117 9 -14 22 -9 92 9 111 17 19 18 19 49 -4 24
-17 38 -21 61 -15 17 3 23 7 14 8 -8 0 -23 7 -32 14 -15 10 -9 12 35 12 61 1
127 29 185 80 39 35 58 42 67 26z m30 -47 c-35 -35 -84 -124 -84 -152 0 -8 -6
-12 -12 -9 -16 5 -12 40 11 92 26 59 69 105 97 105 24 0 24 -1 -12 -36z m116
-4 c40 -20 53 -40 26 -40 -8 0 -34 -19 -58 -43 -48 -46 -77 -113 -79 -176 l-1
-36 -13 35 c-7 19 -14 60 -15 90 -2 50 -3 52 -11 25 -12 -39 -2 -109 22 -157
17 -33 17 -38 4 -38 -9 0 -27 11 -40 25 -23 22 -25 29 -20 104 5 90 27 144 78
199 36 37 53 39 107 12z m-547 -52 c-39 -101 -44 -109 -38 -60 6 46 39 122 54
122 5 0 -2 -28 -16 -62z m-48 -9 c-14 -30 -25 -62 -25 -71 0 -10 -6 -18 -14
-18 -11 0 -12 8 -6 35 10 42 5 43 -28 8 -20 -21 -26 -39 -27 -70 0 -42 -1 -43
-32 -43 -18 0 -33 5 -33 10 0 21 42 92 77 131 31 35 102 82 111 75 1 -2 -9
-27 -23 -57z m710 -42 c30 -52 64 -147 58 -164 -3 -7 2 -16 11 -19 9 -3 16
-15 16 -25 0 -16 -3 -18 -19 -9 -28 14 -99 13 -154 -4 -26 -8 -47 -11 -47 -8
0 3 14 21 32 39 41 43 30 53 -15 14 -43 -38 -62 -40 -53 -6 18 76 17 81 -9 35
l-26 -45 4 57 c5 72 46 143 102 175 48 26 64 20 100 -40z m-725 -77 c0 -5 -4
-10 -9 -10 -6 0 -13 5 -16 10 -3 6 1 10 9 10 9 0 16 -4 16 -10z m30 0 c0 -5
-2 -10 -4 -10 -3 0 -8 5 -11 10 -3 6 -1 10 4 10 6 0 11 -4 11 -10z m333 -17
c-7 -2 -19 -2 -25 0 -7 3 -2 5 12 5 14 0 19 -2 13 -5z m45 -66 c-1 -40 4 -82
11 -94 6 -12 11 -30 11 -40 -1 -10 -11 1 -24 27 -13 25 -22 49 -19 54 3 5 0 6
-8 4 -8 -3 -13 -11 -11 -17 3 -14 0 -14 -34 4 -16 8 -50 15 -76 15 -27 0 -48
4 -48 9 0 12 110 21 131 10 40 -21 49 -12 49 46 0 30 4 55 9 55 5 0 9 -33 9
-73z m-197 53 c59 0 99 -4 99 -10 0 -5 -7 -10 -15 -10 -8 0 -15 -5 -15 -11 0
-5 4 -8 9 -4 5 3 12 1 15 -4 3 -4 -15 -11 -41 -15 -36 -5 -48 -3 -58 11 -8 10
-35 19 -75 24 -34 4 -67 13 -74 19 -9 10 -4 11 23 6 18 -3 78 -6 132 -6z m159
-19 c0 -6 -4 -13 -10 -16 -5 -3 -10 1 -10 9 0 9 5 16 10 16 6 0 10 -4 10 -9z
m-652 -8 c-10 -2 -28 -2 -40 0 -13 2 -5 4 17 4 22 1 32 -1 23 -4z m110 -10
c-10 -2 -28 -2 -40 0 -13 2 -5 4 17 4 22 1 32 -1 23 -4z m235 -10 c-13 -2 -33
-2 -45 0 -13 2 -3 4 22 4 25 0 35 -2 23 -4z m-373 -34 c0 -28 -2 -31 -24 -25
-14 3 -28 2 -31 -4 -13 -21 -25 -9 -25 25 0 34 1 35 40 35 38 0 40 -1 40 -31z
m60 22 c0 -5 7 -12 16 -15 8 -3 12 -2 9 4 -3 6 -1 10 4 10 6 0 11 -6 11 -12 0
-10 3 -9 9 1 6 9 9 -1 9 -28 1 -40 0 -40 -33 -39 -19 1 -32 5 -29 9 3 5 -2 6
-10 3 -13 -5 -16 2 -16 35 0 30 4 41 15 41 8 0 15 -4 15 -9z m180 -21 c0 -19
-4 -21 -73 -35 -11 -2 -16 -1 -13 2 3 3 1 13 -4 23 -13 24 -4 30 47 30 36 0
43 -3 43 -20z m97 10 l35 0 -7 -42 c-9 -51 -10 -52 -27 -42 -7 5 -22 7 -33 6
-17 -2 -16 0 5 13 22 14 22 15 3 10 -12 -3 -25 -1 -29 6 -4 7 -3 9 2 6 6 -3
16 -2 24 4 11 6 8 9 -12 9 -22 0 -28 5 -28 21 0 15 4 19 16 15 9 -3 31 -6 51
-6z m153 -20 c0 -16 -4 -30 -9 -30 -5 0 -7 12 -5 27 3 15 2 25 -1 21 -4 -3 -7
-12 -9 -20 -4 -28 -18 -38 -44 -33 -22 4 -23 4 -7 -3 16 -7 17 -10 5 -14 -10
-3 -9 -4 2 -3 10 2 21 -1 24 -6 3 -5 -9 -9 -25 -9 -26 0 -31 4 -31 25 0 16 6
25 15 25 15 0 21 25 8 33 -5 2 -3 2 4 1 7 -2 15 1 18 6 4 6 17 10 31 10 20 0
24 -5 24 -30z m-250 -33 c0 -19 -10 -27 -26 -20 -11 4 -12 9 -3 19 15 18 29
18 29 1z m388 -3 c17 -3 31 -21 48 -59 30 -65 54 -75 184 -75 81 0 130 -8 175
-26 18 -7 18 -6 7 9 -8 9 -30 21 -50 28 -20 7 -47 19 -59 27 -21 13 -23 13
-23 -2 0 -10 -5 -14 -11 -11 -16 11 19 44 60 56 20 6 61 9 91 7 49 -3 56 -6
69 -32 23 -48 19 -153 -7 -207 -22 -45 -24 -47 -76 -53 -29 -3 -79 -1 -112 5
-64 12 -147 47 -139 59 10 16 -112 70 -158 70 -66 0 -150 18 -167 37 -13 14
-13 15 0 8 9 -5 8 0 -4 14 -17 18 -17 21 -3 15 9 -3 17 -2 17 4 0 5 -27 21
-60 34 l-60 24 97 0 c66 0 106 5 123 14 l25 14 -35 6 c-25 4 -36 11 -38 25 -3
18 2 20 40 17 24 -1 53 -5 66 -8z m500 -19 c16 -17 16 -17 -3 -10 -11 4 -49
10 -85 13 -47 4 -59 7 -45 13 33 14 115 4 133 -16z m-1061 -42 c3 -7 -10 -16
-29 -22 l-33 -9 45 -2 45 -1 -38 -16 c-37 -15 -39 -15 -63 7 -13 13 -24 29
-24 36 0 23 90 29 97 7z m132 -5 c6 -17 4 -25 -8 -30 -9 -4 -11 -7 -4 -7 7 -1
10 -8 6 -17 -5 -12 -9 -11 -26 8 -11 13 -29 33 -40 46 l-20 22 42 0 c34 0 43
-4 50 -22z m-76 -60 c-13 -6 -23 -15 -23 -20 0 -11 7 -10 31 2 32 18 21 1 -13
-20 -41 -25 -73 -27 -43 -3 19 15 19 15 -7 9 -20 -4 -28 -2 -28 7 0 15 44 35
80 35 l25 1 -22 -11z m87 -36 c0 -25 -69 -63 -98 -55 -29 7 -19 21 32 44 45
20 66 24 66 11z m200 -51 c34 -7 15 -9 -83 -10 -83 -1 -126 3 -122 9 7 12 140
12 205 1z m-108 -27 c25 -4 40 -13 44 -26 9 -29 -4 -35 -15 -7 -5 13 -10 19
-10 12 -1 -6 -10 -9 -23 -5 -14 3 -19 1 -14 -6 9 -16 -33 -40 -71 -40 -32 -1
-33 1 -33 39 l0 39 43 0 c23 0 59 -3 79 -6z m118 -44 c0 -36 -4 -50 -14 -50
-10 0 -13 12 -11 48 3 55 2 52 15 52 6 0 10 -22 10 -50z m34 13 c-6 -27 -6
-27 9 -8 8 11 13 24 10 29 -4 5 -1 6 6 2 6 -4 9 -12 6 -17 -4 -5 0 -9 7 -9 7
0 1 -8 -12 -17 -14 -9 -28 -22 -32 -27 -4 -6 -8 8 -8 32 0 23 5 42 10 42 6 0
8 -11 4 -27z m146 17 c0 -5 -5 -10 -12 -10 -6 0 -8 -3 -4 -7 4 -5 14 1 22 11
10 15 14 16 14 5 0 -8 -6 -21 -12 -28 -10 -11 -10 -13 0 -7 8 5 12 -2 12 -24
l0 -31 -67 1 c-38 1 -70 1 -73 0 -38 -12 -43 -7 -15 16 34 27 54 32 34 8 -11
-14 -7 -15 42 -10 30 2 58 5 63 5 5 1 3 8 -4 16 -7 8 -18 15 -24 14 -7 0 -6
-2 2 -6 6 -2 12 -9 12 -14 0 -4 -7 -6 -15 -3 -14 6 -13 41 2 67 6 10 23 9 23
-3z m-262 -42 c7 -7 12 -20 12 -30 0 -14 -8 -18 -39 -16 -27 1 -38 5 -34 14 3
9 11 10 30 3 14 -5 28 -7 31 -4 4 3 -3 8 -15 11 -13 4 -20 11 -16 20 6 17 15
18 31 2z m195 -8 c-3 -11 -7 -20 -9 -20 -2 0 -4 9 -4 20 0 11 4 20 9 20 5 0 7
-9 4 -20z m-305 -37 c-10 -2 -26 -2 -35 0 -10 3 -2 5 17 5 19 0 27 -2 18 -5z
m57 -33 c-29 -12 -168 -12 -160 0 3 6 45 10 93 9 58 0 80 -3 67 -9z m50 0 c-3
-5 -11 -10 -16 -10 -6 0 -7 5 -4 10 3 6 11 10 16 10 6 0 7 -4 4 -10z m215 0
c0 -6 -40 -10 -101 -10 -64 0 -98 4 -94 10 3 6 48 10 101 10 56 0 94 -4 94
-10z m280 -60 c0 -44 -4 -70 -11 -70 -7 0 -10 23 -7 65 l3 64 -85 4 -85 3 93
2 92 2 0 -70z m153 63 c-23 -2 -64 -2 -90 0 -26 2 -7 3 42 3 50 0 71 -1 48 -3z
m-391 -105 c-8 -35 -22 -17 -22 26 0 67 14 91 20 36 3 -25 4 -53 2 -62z m-320
27 l-4 -55 -34 0 c-24 0 -34 5 -34 15 0 9 -8 19 -17 22 -10 4 -21 11 -25 17
-5 7 -8 5 -8 -4 0 -13 -1 -13 -10 0 -9 13 -10 13 -10 0 0 -8 -7 -2 -15 14 -8
15 -15 32 -15 37 0 5 39 9 88 9 l87 0 -3 -55z m66 5 c-4 -63 -20 -70 -23 -10
-3 48 1 60 16 60 6 0 9 -22 7 -50z m187 42 c-5 -4 -10 -20 -10 -36 0 -16 -6
-30 -13 -32 -7 -1 -8 0 -2 3 13 6 13 33 -1 33 -5 0 -7 -5 -3 -12 5 -7 2 -9 -8
-5 -12 4 -14 1 -11 -14 5 -18 16 -24 38 -19 5 1 6 -2 2 -7 -5 -4 -42 -8 -83
-8 l-74 0 0 31 c0 16 6 36 13 43 10 11 10 13 0 7 -8 -4 -13 -1 -13 8 0 13 15
16 88 16 48 0 83 -4 77 -8z m218 1 c-23 -2 -64 -2 -90 0 -26 2 -7 3 42 3 50 0
71 -1 48 -3z m275 -2 c9 -5 12 -24 10 -52 l-3 -44 -87 -3 -88 -3 0 56 0 55 78
0 c42 0 83 -4 90 -9z m-259 -58 c0 -33 -3 -42 -8 -29 -6 16 -9 17 -13 4 -4
-10 -23 -15 -62 -17 -55 -1 -56 -1 -56 25 0 15 3 24 7 21 3 -4 14 0 24 9 17
16 61 32 92 33 14 1 17 -7 16 -46z m-569 -29 c0 -10 -13 -14 -40 -14 -43 0
-53 16 -18 29 28 10 58 3 58 -15z m-49 -34 c33 0 59 -4 59 -10 0 -6 -35 -10
-85 -10 -47 0 -85 4 -85 9 0 12 21 21 38 15 8 -2 40 -4 73 -4z m987 -7 c3 -10
-38 -13 -182 -13 -229 0 -256 18 -33 23 204 4 210 4 215 -10z m-643 -3 c-3 -6
-50 -10 -105 -10 -55 0 -102 4 -105 10 -4 6 33 10 105 10 72 0 109 -4 105 -10z
m220 0 c-3 -5 -44 -10 -91 -10 -49 0 -84 4 -84 10 0 6 37 10 91 10 57 0 88 -4
84 -10z m34 -60 c1 -48 -1 -60 -14 -60 -11 0 -15 11 -15 43 0 50 9 89 20 82 4
-2 8 -31 9 -65z m-229 -11 c0 -37 -4 -49 -15 -49 -11 0 -15 12 -15 48 0 27 3
52 6 55 15 14 24 -7 24 -54z m-260 1 c0 -27 -4 -50 -10 -50 -5 0 -10 23 -10
50 0 28 5 50 10 50 6 0 10 -22 10 -50z m86 37 c-11 -7 -30 -23 -43 -36 l-23
-24 0 37 c0 36 0 36 43 35 37 0 40 -2 23 -12z m359 3 c4 -6 4 -33 0 -60 l-7
-50 -44 0 c-41 0 -44 2 -45 28 -1 15 -1 33 1 41 1 10 -6 12 -24 7 -18 -4 -26
-2 -29 11 -3 10 -5 1 -6 -21 -1 -29 2 -37 13 -33 8 3 16 -2 19 -14 4 -15 0
-19 -19 -19 -22 0 -24 4 -24 54 l0 55 43 4 c86 7 116 7 122 -3z m465 -8 c0
-10 -6 -24 -12 -31 -10 -11 -10 -13 0 -7 14 9 16 -3 2 -24 -7 -11 -10 -11 -10
-2 0 7 -4 10 -10 7 -15 -9 -12 -25 5 -25 8 0 15 -4 15 -10 0 -6 -30 -10 -72
-9 -40 0 -67 3 -59 6 11 4 11 7 0 13 -17 11 8 43 28 36 8 -3 12 -2 9 3 -8 12
45 25 53 13 3 -5 15 -1 25 9 11 11 15 19 10 19 -6 0 -15 -5 -21 -11 -9 -9 -10
-7 -6 10 7 26 43 29 43 3z m-980 -2 c0 -6 -10 -15 -22 -20 l-23 -9 23 0 c12
-1 22 -3 22 -5 0 -2 3 -12 7 -22 5 -12 3 -15 -6 -9 -10 5 -11 2 -6 -14 6 -21
5 -22 -81 -19 l-87 3 -2 33 c-1 32 9 43 18 20 3 -7 6 -3 6 10 1 13 -3 20 -9
17 -5 -3 -10 1 -10 9 0 13 15 16 85 16 52 0 85 -4 85 -10z m720 -12 c-1 -21
-2 -22 -14 -5 -7 9 -19 17 -27 17 -11 0 -11 -2 1 -10 25 -16 -10 -12 -40 5
-24 14 -23 14 28 15 47 0 52 -2 52 -22z m170 15 c-8 -3 -27 -12 -42 -20 -26
-13 -28 -12 -28 7 0 17 6 20 43 19 23 0 35 -3 27 -6z m-641 -39 c5 -12 7 -31
4 -43 -5 -19 -13 -21 -78 -21 -68 0 -73 1 -68 20 16 60 120 92 142 44z m381
-6 c0 -5 4 -6 10 -3 16 10 50 -14 50 -35 0 -18 -7 -20 -55 -20 l-56 0 2 44 c3
42 4 43 26 33 13 -5 23 -14 23 -19z m172 -33 c-4 -22 -10 -25 -43 -25 -35 0
-39 3 -39 25 0 23 4 25 44 25 41 0 43 -1 38 -25z m-857 -50 c6 -2 -34 -4 -88
-4 -54 -1 -96 3 -93 7 5 8 157 5 181 -3z m208 -2 c-29 -2 -78 -2 -110 0 -32 2
-8 3 52 3 61 0 87 -1 58 -3z m250 0 c-35 -2 -91 -2 -125 0 -35 2 -7 3 62 3 69
0 97 -1 63 -3z m215 0 c-26 -2 -71 -2 -100 0 -29 2 -8 3 47 3 55 0 79 -1 53
-3z m200 0 c-26 -2 -71 -2 -100 0 -29 2 -8 3 47 3 55 0 79 -1 53 -3z m170 0
c-15 -2 -42 -2 -60 0 -18 2 -6 4 27 4 33 0 48 -2 33 -4z m-788 -73 c0 -33 -4
-60 -10 -60 -11 0 -14 103 -3 113 12 12 13 8 13 -53z m188 44 c-3 -3 -22 -6
-41 -7 -19 -1 -33 -6 -30 -11 3 -5 6 -26 7 -47 1 -41 -17 -52 -42 -27 -9 9
-12 9 -12 0 0 -7 -4 -12 -10 -12 -5 0 -10 8 -10 18 0 10 -5 23 -12 30 -6 6
-12 22 -14 36 -3 25 -1 25 79 28 84 3 94 2 85 -8z m70 -50 c-2 -27 -7 -49 -13
-49 -11 0 -19 79 -10 103 11 30 26 -5 23 -54z m-568 46 c-13 -9 -13 -10 0 -10
19 0 26 -56 9 -76 -8 -9 -34 -14 -80 -14 -65 0 -69 1 -70 23 0 12 -2 32 -5 45
-2 13 1 22 9 22 8 0 7 4 -3 10 -10 7 11 10 70 10 59 0 80 -3 70 -10z m90 -40
c0 -38 -4 -50 -15 -50 -11 0 -15 12 -15 50 0 38 4 50 15 50 11 0 15 -12 15
-50z m178 16 c2 -18 0 -26 -7 -21 -6 3 -11 2 -11 -4 0 -5 -20 -20 -44 -32 -40
-19 -46 -20 -60 -7 -11 11 -12 18 -3 27 8 8 7 11 -6 11 -20 0 -24 -36 -4 -43
7 -4 6 -6 -5 -6 -13 -1 -17 10 -20 54 l-3 56 80 -3 c80 -3 80 -3 83 -32z m722
11 c0 -28 -17 -47 -36 -40 -8 3 -14 0 -14 -6 0 -6 -8 -11 -18 -11 -20 0 -45
24 -56 54 -5 15 -9 16 -21 6 -12 -10 -15 -9 -15 4 0 13 13 16 80 16 77 0 80
-1 80 -23z m140 7 c0 -12 -3 -14 -13 -6 -7 6 -35 12 -62 15 -48 3 -48 3 13 5
51 2 62 -1 62 -14z m-635 -27 c-8 -13 -12 -27 -8 -32 5 -4 2 -5 -5 -1 -7 5
-11 15 -8 23 3 8 1 11 -4 8 -6 -3 -10 -13 -10 -21 0 -14 11 -18 38 -15 20 3
14 -17 -8 -24 -26 -8 -40 1 -40 27 0 25 27 58 47 58 11 0 11 -4 -2 -23z m201
12 c41 -11 44 -14 44 -44 l0 -32 -75 -2 -75 -2 0 46 c0 44 1 45 31 45 16 0 50
-5 75 -11z m369 1 c3 -5 14 -10 23 -9 14 0 13 2 -3 9 -15 7 -16 9 -4 9 9 1 22
-6 29 -15 8 -8 9 -14 4 -13 -21 4 -28 -2 -14 -11 13 -8 13 -10 -2 -10 -9 0
-19 -6 -22 -12 -4 -7 -4 -3 -2 9 2 12 1 22 -3 21 -14 -3 -41 15 -35 23 7 12
21 11 29 -1z m-558 -32 c-3 -8 -6 -5 -6 6 -1 11 2 17 5 13 3 -3 4 -12 1 -19z
m329 1 c3 -6 19 -18 35 -28 l28 -17 -67 0 c-65 1 -67 2 -70 29 -3 25 -1 27 32
27 19 0 38 -5 42 -11z m179 -29 c0 -7 -10 -15 -23 -16 -20 -4 -21 -2 -12 17
12 22 35 21 35 -1z m95 -11 c0 -6 -4 -7 -10 -4 -5 3 -10 11 -10 16 0 6 5 7 10
4 6 -3 10 -11 10 -16z m-847 -6 c-7 -2 -19 -2 -25 0 -7 3 -2 5 12 5 14 0 19
-2 13 -5z"/>
<path d="M1802 3628 c-20 -20 -13 -32 7 -14 11 10 25 15 32 10 8 -4 10 -3 5 4
-9 15 -29 15 -44 0z"/>
<path d="M1798 3347 c-26 -17 -45 -33 -43 -36 5 -4 83 47 91 61 8 12 3 10 -48
-25z"/>
<path d="M1054 3070 c0 -13 4 -16 10 -10 7 7 7 13 0 20 -6 6 -10 3 -10 -10z"/>
<path d="M1188 3043 c18 -2 30 -9 27 -14 -4 -5 -1 -9 4 -9 6 0 11 7 11 15 0
11 -10 15 -37 13 -38 -1 -38 -1 -5 -5z"/>
<path d="M1413 3063 c9 -2 23 -2 30 0 6 3 -1 5 -18 5 -16 0 -22 -2 -12 -5z"/>
<path d="M1550 3049 c0 -5 5 -7 10 -4 6 3 10 8 10 11 0 2 -4 4 -10 4 -5 0 -10
-5 -10 -11z"/>
<path d="M1290 2949 c0 -5 5 -7 10 -4 6 3 10 8 10 11 0 2 -4 4 -10 4 -5 0 -10
-5 -10 -11z"/>
<path d="M1318 2763 c7 -3 16 -2 19 1 4 3 -2 6 -13 5 -11 0 -14 -3 -6 -6z"/>
<path d="M1234 2611 c3 -5 15 -7 26 -4 28 7 25 13 -6 13 -14 0 -23 -4 -20 -9z"/>
<path d="M1358 2613 c7 -3 16 -2 19 1 4 3 -2 6 -13 5 -11 0 -14 -3 -6 -6z"/>
<path d="M1365 2590 c3 -5 8 -10 11 -10 2 0 4 5 4 10 0 6 -5 10 -11 10 -5 0
-7 -4 -4 -10z"/>
<path d="M1525 2610 c3 -5 11 -10 16 -10 6 0 7 5 4 10 -3 6 -11 10 -16 10 -6
0 -7 -4 -4 -10z"/>
<path d="M1497 2553 c-4 -3 -7 -11 -7 -17 0 -6 5 -5 12 2 6 6 9 14 7 17 -3 3
-9 2 -12 -2z"/>
<path d="M2020 2605 c-7 -8 -9 -15 -4 -16 5 -1 -2 -5 -16 -9 -24 -9 -24 -9 4
-7 20 1 31 9 37 25 10 25 -2 29 -21 7z"/>
<path d="M2055 2590 c-3 -5 -1 -10 4 -10 6 0 11 5 11 10 0 6 -2 10 -4 10 -3 0
-8 -4 -11 -10z"/>
<path d="M2118 2583 c7 -3 16 -2 19 1 4 3 -2 6 -13 5 -11 0 -14 -3 -6 -6z"/>
<path d="M1986 2545 c4 -8 12 -15 19 -15 7 0 15 7 19 15 4 11 -1 15 -19 15
-18 0 -23 -4 -19 -15z"/>
<path d="M2064 2539 c-3 -5 12 -9 32 -9 21 0 34 3 31 6 -11 11 -57 13 -63 3z"/>
<path d="M1835 2540 c3 -5 8 -10 11 -10 2 0 4 5 4 10 0 6 -5 10 -11 10 -5 0
-7 -4 -4 -10z"/>
<path d="M1265 2540 c-3 -5 1 -10 10 -10 9 0 13 5 10 10 -3 6 -8 10 -10 10 -2
0 -7 -4 -10 -10z"/>
<path d="M1733 2426 c1 -28 4 -33 14 -24 9 8 18 7 30 -3 15 -13 15 -12 6 6 -6
11 -20 28 -31 38 -20 18 -20 18 -19 -17z"/>
<path d="M1231 2394 c-1 -6 5 -17 13 -23 10 -9 16 -8 26 4 7 9 10 18 6 22 -3
3 -6 1 -6 -5 0 -16 -27 -15 -33 1 -4 7 -6 8 -6 1z"/>
<path d="M1531 2404 c0 -11 3 -14 6 -6 3 7 2 16 -1 19 -3 4 -6 -2 -5 -13z"/>
<path d="M1893 2400 c1 -11 5 -20 9 -20 3 0 6 9 5 20 -1 11 -5 20 -9 20 -3 0
-6 -9 -5 -20z"/>
<path d="M1930 2376 c0 -2 9 -6 20 -9 11 -3 18 -1 14 4 -5 9 -34 13 -34 5z"/>
<path d="M2040 2366 c7 -7 14 -6 21 1 9 9 7 12 -9 10 -14 -1 -18 -5 -12 -11z"/>
<path d="M1572 2261 c-8 -5 -12 -16 -10 -25 2 -12 6 -10 15 9 6 14 10 25 10
25 -1 0 -8 -4 -15 -9z"/>
<path d="M1601 2254 c0 -11 3 -14 6 -6 3 7 2 16 -1 19 -3 4 -6 -2 -5 -13z"/>
<path d="M1580 2230 c0 -6 7 -10 15 -10 8 0 15 2 15 4 0 2 -7 6 -15 10 -8 3
-15 1 -15 -4z"/>
<path d="M1128 2283 c7 -3 16 -2 19 1 4 3 -2 6 -13 5 -11 0 -14 -3 -6 -6z"/>
<path d="M1185 2220 c3 -5 8 -10 11 -10 2 0 4 5 4 10 0 6 -5 10 -11 10 -5 0
-7 -4 -4 -10z"/>
<path d="M1330 2283 c0 -12 58 -14 65 -3 4 6 -9 10 -29 10 -20 0 -36 -3 -36
-7z"/>
<path d="M1380 2249 c0 -5 5 -7 10 -4 6 3 10 8 10 11 0 2 -4 4 -10 4 -5 0 -10
-5 -10 -11z"/>
<path d="M1390 2230 c-8 -5 -10 -10 -5 -10 6 0 17 5 25 10 8 5 11 10 5 10 -5
0 -17 -5 -25 -10z"/>
<path d="M2148 2273 c7 -3 16 -2 19 1 4 3 -2 6 -13 5 -11 0 -14 -3 -6 -6z"/>
<path d="M2088 2263 c6 -2 18 -2 25 0 6 3 1 5 -13 5 -14 0 -19 -2 -12 -5z"/>
<path d="M2130 2256 c0 -2 7 -6 15 -10 8 -3 15 -1 15 4 0 6 -7 10 -15 10 -8 0
-15 -2 -15 -4z"/>
<path d="M2480 3639 c0 -85 3 -104 18 -115 16 -13 16 -13 0 -14 -17 0 -18 -34
-18 -575 0 -568 0 -575 20 -575 20 0 20 7 20 375 0 285 -3 375 -12 375 -9 0
-9 3 0 12 9 9 12 93 12 315 0 296 0 303 -20 303 -19 0 -20 -7 -20 -101z"/>
<path d="M3165 3340 c-4 -7 -3 -16 3 -22 14 -14 45 -2 40 15 -6 16 -34 21 -43
7z"/>
<path d="M3420 3240 c0 -91 3 -110 15 -110 11 0 15 11 15 38 l1 37 30 -37 c17
-21 37 -38 45 -38 20 0 18 8 -11 46 -14 18 -25 36 -25 39 0 3 12 22 26 41 35
46 7 47 -35 2 l-31 -33 0 63 c0 48 -3 62 -15 62 -12 0 -15 -19 -15 -110z"/>
<path d="M3845 3340 c-4 -7 -3 -16 3 -22 14 -14 45 -2 40 15 -6 16 -34 21 -43
7z"/>
<path d="M4100 3240 c0 -91 3 -110 15 -110 11 0 15 11 15 38 l1 37 30 -37 c17
-21 37 -38 45 -38 20 0 18 8 -11 46 -14 18 -25 36 -25 39 0 3 12 22 26 41 35
46 7 47 -35 2 l-31 -33 0 63 c0 48 -3 62 -15 62 -12 0 -15 -19 -15 -110z"/>
<path d="M2840 3235 l0 -105 58 0 c70 0 102 19 102 60 0 17 -8 34 -19 42 -17
12 -17 16 -5 33 18 25 18 31 -6 55 -15 15 -33 20 -75 20 l-55 0 0 -105z m108
51 c5 -22 -13 -36 -45 -36 -19 0 -23 5 -23 31 0 28 2 30 32 27 23 -2 34 -9 36
-22z m0 -65 c8 -4 12 -19 10 -32 -2 -20 -10 -25 -40 -27 -37 -3 -38 -3 -38 32
0 33 3 36 28 36 15 0 33 -4 40 -9z"/>
<path d="M3560 3333 c0 -5 10 -52 22 -105 19 -88 24 -98 43 -98 19 0 24 9 35
60 20 93 26 89 56 -32 4 -20 12 -28 28 -28 20 0 24 11 44 98 26 115 26 112 8
112 -16 0 -19 -7 -37 -92 -13 -62 -23 -67 -33 -16 -15 74 -28 108 -41 108 -13
0 -26 -34 -41 -108 -9 -46 -21 -48 -29 -4 -13 77 -26 112 -40 112 -8 0 -15 -3
-15 -7z"/>
<path d="M3047 3283 c-4 -3 -7 -39 -7 -80 0 -66 2 -73 20 -73 18 0 20 7 20 55
0 43 4 56 19 64 10 6 21 8 23 5 3 -3 8 2 11 10 8 21 -8 29 -32 16 -13 -7 -22
-7 -26 0 -7 12 -19 13 -28 3z"/>
<path d="M3170 3210 c0 -64 3 -80 15 -80 12 0 15 16 15 80 0 64 -3 80 -15 80
-12 0 -15 -16 -15 -80z"/>
<path d="M3283 3280 c-41 -16 -49 -103 -12 -132 26 -22 72 -23 93 -2 31 30 14
45 -24 22 -30 -19 -55 1 -55 42 0 42 26 61 56 42 31 -20 47 1 18 22 -26 18
-43 19 -76 6z"/>
<path d="M3850 3210 c0 -64 3 -80 15 -80 12 0 15 16 15 80 0 64 -3 80 -15 80
-12 0 -15 -16 -15 -80z"/>
<path d="M3963 3280 c-41 -16 -49 -103 -12 -132 26 -22 72 -23 93 -2 31 30 14
45 -24 22 -30 -19 -55 1 -55 42 0 42 26 61 56 42 31 -20 47 1 18 22 -26 18
-43 19 -76 6z"/>
<path d="M4070 2920 c0 -15 5 -20 18 -18 9 2 17 10 17 18 0 8 -8 16 -17 18
-13 2 -18 -3 -18 -18z"/>
<path d="M2663 2906 c-25 -21 -28 -31 -28 -81 0 -50 3 -60 28 -81 39 -33 90
-32 124 2 21 21 23 28 12 35 -9 5 -21 1 -34 -11 -43 -41 -95 -10 -95 55 0 63
51 95 92 58 15 -13 21 -14 31 -4 9 10 7 16 -12 32 -32 27 -84 24 -118 -5z"/>
<path d="M3360 2895 c0 -8 -4 -15 -10 -15 -5 0 -10 -7 -10 -15 0 -8 4 -15 9
-15 5 0 11 -25 13 -56 5 -58 16 -74 55 -74 32 0 38 19 9 30 -23 8 -26 15 -26
55 0 38 3 45 20 45 11 0 20 7 20 15 0 8 -9 15 -20 15 -11 0 -20 7 -20 15 0 8
-9 15 -20 15 -11 0 -20 -7 -20 -15z"/>
<path d="M3950 2895 c0 -8 -4 -15 -10 -15 -5 0 -10 -7 -10 -15 0 -8 4 -15 9
-15 5 0 11 -25 13 -56 5 -58 16 -74 55 -74 32 0 38 19 9 30 -23 8 -26 15 -26
55 0 38 3 45 20 45 11 0 20 7 20 15 0 8 -9 15 -20 15 -11 0 -20 7 -20 15 0 8
-9 15 -20 15 -11 0 -20 -7 -20 -15z"/>
<path d="M2873 2870 c-41 -16 -49 -103 -12 -132 51 -42 119 -8 119 60 0 43 -6
55 -37 71 -25 13 -40 13 -70 1z m71 -53 c7 -19 7 -34 0 -45 -25 -39 -74 -20
-74 27 0 55 57 69 74 18z"/>
<path d="M3030 2800 c0 -64 3 -80 15 -80 11 0 15 13 15 53 0 55 12 77 41 77
22 0 29 -20 29 -81 0 -37 4 -49 15 -49 13 0 15 13 13 72 -3 69 -4 73 -30 82
-22 8 -32 6 -48 -9 -18 -16 -20 -16 -20 -2 0 10 -7 17 -15 17 -12 0 -15 -16
-15 -80z"/>
<path d="M3222 2864 c-35 -24 -28 -53 18 -71 22 -9 40 -22 40 -30 0 -16 -46
-18 -56 -2 -4 8 -10 7 -18 -1 -8 -8 -6 -15 8 -26 41 -30 106 -8 106 36 0 21
-11 30 -55 45 -36 12 -31 30 9 30 36 0 45 20 14 29 -34 9 -41 8 -66 -10z"/>
<path d="M3480 2800 c0 -61 3 -80 14 -80 9 0 15 17 18 52 5 50 29 85 49 72 5
-3 9 5 9 16 0 16 -4 20 -15 16 -8 -3 -22 -9 -30 -12 -8 -3 -15 -1 -15 5 0 6
-7 11 -15 11 -12 0 -15 -16 -15 -80z"/>
<path d="M3600 2819 c0 -33 5 -69 10 -80 12 -21 41 -25 71 -9 13 7 19 7 19 0
0 -5 7 -10 15 -10 12 0 15 16 15 80 0 64 -3 80 -15 80 -11 0 -15 -13 -15 -53
0 -55 -12 -77 -41 -77 -19 0 -29 28 -29 88 0 31 -4 42 -15 42 -12 0 -15 -13
-15 -61z"/>
<path d="M3806 2859 c-52 -41 -24 -139 40 -139 33 0 64 17 64 35 0 17 -26 20
-35 5 -12 -19 -45 -10 -57 15 -22 49 25 98 60 63 9 -9 15 -9 25 1 10 10 8 15
-7 27 -28 20 -59 18 -90 -7z"/>
<path d="M4070 2800 c0 -64 3 -80 15 -80 12 0 15 16 15 80 0 64 -3 80 -15 80
-12 0 -15 -16 -15 -80z"/>
<path d="M4175 2855 c-31 -30 -32 -73 -4 -109 41 -52 129 -16 129 54 0 38 -39
80 -75 80 -14 0 -37 -11 -50 -25z m74 -19 c7 -8 11 -30 9 -48 -2 -28 -7 -34
-31 -36 -21 -3 -29 2 -36 20 -4 13 -7 29 -5 36 2 6 6 19 9 27 6 19 39 19 54 1z"/>
<path d="M4340 2800 c0 -64 3 -80 15 -80 11 0 15 11 15 39 0 60 16 93 43 89
20 -3 22 -9 25 -65 3 -55 6 -63 22 -63 18 0 20 7 20 59 0 43 -5 65 -19 82 -18
22 -22 23 -53 11 -21 -8 -34 -9 -36 -2 -2 5 -10 10 -18 10 -11 0 -14 -18 -14
-80z"/>
</g>
</svg>
